<svg xmlns="http://www.w3.org/2000/svg" viewBox="0 0 413.27 442.95">
    <defs>
        <style>
            .a{fill:#20a43a;}.b{fill:#18842d;}.c{fill:#18852d;}.d{fill:#20a53a;}.e{fill:#21a53b;}.f{fill:#24a53e;}.g{fill:#fefefe;}.h{fill:#fdfefd;}
        </style>
    </defs>
    <path class="a"
          d="M206.36,441.93a22.57,22.57,0,0,1-1.22-6.14q0-23.24,0-46.47,0-121.24,0-242.5c0-3.06,0-6.11-.35-9.16a1,1,0,0,1,.67-1.08,4.71,4.71,0,0,1,2.82.31c9.08,2.51,18.13,5.11,27.25,7.45,2.35.6,2.89,1.67,2.85,3.89-.13,7,.11,14.06-.13,21.08-.09,2.86.85,3.91,3.58,4.45,5.8,1.15,11.37,3.31,17.26,4.15a1.06,1.06,0,0,0,.5,0c2.16-.74,3.56.44,5.34,1.18a1.15,1.15,0,0,0,.41.08c4,0,.63-1.76,1.41-2.57-.44-6-.19-12-.17-17.92,0-1.5.16-3,1.49-3.94a1,1,0,0,1,.84-.12c9.13,2.6,18.25,5.21,27.4,7.77,1.81.51,1.73,1.81,1.73,3.23,0,6.91.06,13.82,0,20.72,0,2.21.43,3.36,2.85,3.9,5.51,1.23,10.95,2.83,16.41,4.29a1.16,1.16,0,0,0,.64,0c2.58-.93,4.83,1.15,7.31,1.08a1,1,0,0,0,.95-.73c.9-3.1.19-6.27.28-9.4a72.46,72.46,0,0,0-.22-11.69c0-.26.06-.5,0-.74-.08-1.32.49-.94,1.29-.71,9,2.58,18,5.26,27.09,7.75,2.42.67,1.82,2.38,1.83,3.88q.19,34,.33,68c.09,27.83.09,55.67.26,83.5a20,20,0,0,1-2.21,9.4c-7.33,14.66-17.89,26.75-29.94,37.62-22.08,19.92-47.84,33.77-75.11,45.1-12.67,5.27-25.76,8.83-38.66,13.82-1.1.43-1.38.55-1.51.58l-.3.12a15.83,15.83,0,0,1-2.81.92"/>
    <path class="b"
          d="M204.85,137.06a1.83,1.83,0,0,1,1.65,2.12c0,1.13,0,2.27,0,3.4V443l-1-.28s-17.77-5.83-26.56-9c-30.35-11-59.19-24.91-84.37-45.51-13.95-11.41-26.14-24.38-35-40.25a28.69,28.69,0,0,1-3.78-14.69q.49-74.44.53-148.88c0-2.94.93-4.12,3.7-4.85,8.74-2.32,17.4-4.91,26.09-7.4h0c1.26,1.33,1.08,3,1.09,4.63,0,4.9,0,9.8,0,14.7,0,3.72.34,3.94,3.91,3.3a9.78,9.78,0,0,1,4.1-.19h0c5.83-1.49,11.64-3.07,17.49-4.45,2-.48,2.12-1.69,2.1-3.33,0-7,0-14.07,0-21.1,0-1.42-.11-2.73,1.72-3.24,9.29-2.61,18.56-5.28,27.84-7.93h0c1.37,1.45,1,3.28,1.06,5,.18,6.27-.32,12.56.28,18.82h0c2.09,1.84,4-.31,6-.25,1.07-.32,1.58.22,3.2.05,5.34-1.46,10.64-3.09,16-4.29,2.69-.6,3.68-1.59,3.58-4.47-.24-7.17-.07-14.36-.08-21.55,0-1.41-.11-2.61,1.82-3.11C185.88,142.23,195.36,139.62,204.85,137.06Z"/>
    <path class="a"
          d="M206.42,68.23c4.46.31,7.33,2,8,7,.55,4.2,1,9.39,3.6,12s7.88,2.74,12,3.89q75.12,21.06,150.21,42.15c2.56.73,4.62.74,6.51-1.21.17-.18.43-.27.6-.45,7-7.08,15.24-9.18,24.92-5.27.25.73-.85,1.27-1.4,2-7.91,10.44-15.9,20.83-23.75,31.32-1.48,2-2.69,2.59-5.29,1.84q-86-24.94-172.09-49.7a13.12,13.12,0,0,0-5.55-.52c1.41-4.5,1-9.13,1-13.73,0-8,0-16,0-24C205.23,71.74,205.07,69.81,206.42,68.23Z"/>
    <path class="b"
          d="M206.42,68.23c0,12.89,0,25.77,0,38.65,0,2-.2,3.66-2.28,4.49-15.71,4.6-31.4,9.26-47.12,13.81Q94,143.38,31,161.51c-1.54.44-2.92,1.33-4.34-.55C18,149.41,9.16,137.94,0,125.91l13.83-1.69a2.67,2.67,0,0,1,2.11.6,19.51,19.51,0,0,1,1.83,1.33c7.14,7.49,14.83,7.56,24.69,4.67,49.68-14.53,99.61-28.18,149.48-42.07,2.43-.68,3.91-1.62,4.34-4.3.49-3.1,1.84-6.09,2.15-9.19C198.92,70.2,202,68.54,206.42,68.23Z"/>
    <path class="a"
          d="M206.4.34c6.92-.36,6.93-.36,8.19,6.39,1.59,8.54,3.24,17.07,4.69,25.64a3.88,3.88,0,0,0,3.15,3.57q69.87,20.91,139.7,42a4,4,0,0,0,4.2-.69c.19-.17.43-.27.62-.44,7.5-6.71,15.73-10.23,25.92-5.26.13.76-1.18,1.21-1.91,1.93C382.05,82.2,373,90.83,364.23,99.67c-2.15,2.16-4,2.57-6.9,1.74q-73.95-20.86-148-41.51c-1.21-.34-2.46-.55-3.68-.81a7.17,7.17,0,0,1-.51-3.69c0-16.44,0-32.88,0-49.33C205.22,4.11,204.86,2,206.4.34Z"/>
    <path class="b"
          d="M206.4.34q0,27.18,0,54.36c0,1.5.16,3-.72,4.39Q169.33,69.35,133,79.62c-25.69,7.22-51.42,14.31-77.07,21.69-3.43,1-5.51.37-7.81-2.14-8.93-9.74-18-19.35-26.62-28.56,2.81-.4,7.22-1,11.61-1.67,1.75-.26,3,.8,4,1.81,7.32,7.59,15.13,7,24.81,4C104.2,61.43,146.79,49,189.3,36.32c2.81-.84,4-2.09,4.46-5.05,1.37-8.71,3.4-17.31,4.68-26,.58-4,1.92-5.9,6.08-5A14.6,14.6,0,0,0,206.4.34Z"/>
</svg>