<svg xmlns="http://www.w3.org/2000/svg" viewBox="0 0 822.27 442.95">
    <defs>
        <style>
            .a{fill:#20a43a;}.b{fill:#18842d;}.c{fill:#18852d;}.d{fill:#20a53a;}.e{fill:#21a53b;}.f{fill:#24a53e;}.g{fill:#fefefe;}.h{fill:#fdfefd;}
        </style>
    </defs>
    <path class="a"
          d="M206.36,441.93a22.57,22.57,0,0,1-1.22-6.14q0-23.24,0-46.47,0-121.24,0-242.5c0-3.06,0-6.11-.35-9.16a1,1,0,0,1,.67-1.08,4.71,4.71,0,0,1,2.82.31c9.08,2.51,18.13,5.11,27.25,7.45,2.35.6,2.89,1.67,2.85,3.89-.13,7,.11,14.06-.13,21.08-.09,2.86.85,3.91,3.58,4.45,5.8,1.15,11.37,3.31,17.26,4.15a1.06,1.06,0,0,0,.5,0c2.16-.74,3.56.44,5.34,1.18a1.15,1.15,0,0,0,.41.08c4,0,.63-1.76,1.41-2.57-.44-6-.19-12-.17-17.92,0-1.5.16-3,1.49-3.94a1,1,0,0,1,.84-.12c9.13,2.6,18.25,5.21,27.4,7.77,1.81.51,1.73,1.81,1.73,3.23,0,6.91.06,13.82,0,20.72,0,2.21.43,3.36,2.85,3.9,5.51,1.23,10.95,2.83,16.41,4.29a1.16,1.16,0,0,0,.64,0c2.58-.93,4.83,1.15,7.31,1.08a1,1,0,0,0,.95-.73c.9-3.1.19-6.27.28-9.4a72.46,72.46,0,0,0-.22-11.69c0-.26.06-.5,0-.74-.08-1.32.49-.94,1.29-.71,9,2.58,18,5.26,27.09,7.75,2.42.67,1.82,2.38,1.83,3.88q.19,34,.33,68c.09,27.83.09,55.67.26,83.5a20,20,0,0,1-2.21,9.4c-7.33,14.66-17.89,26.75-29.94,37.62-22.08,19.92-47.84,33.77-75.11,45.1-12.67,5.27-25.76,8.83-38.66,13.82-1.1.43-1.38.55-1.51.58l-.3.12a15.83,15.83,0,0,1-2.81.92"/>
    <path class="b"
          d="M204.85,137.06a1.83,1.83,0,0,1,1.65,2.12c0,1.13,0,2.27,0,3.4V443l-1-.28s-17.77-5.83-26.56-9c-30.35-11-59.19-24.91-84.37-45.51-13.95-11.41-26.14-24.38-35-40.25a28.69,28.69,0,0,1-3.78-14.69q.49-74.44.53-148.88c0-2.94.93-4.12,3.7-4.85,8.74-2.32,17.4-4.91,26.09-7.4h0c1.26,1.33,1.08,3,1.09,4.63,0,4.9,0,9.8,0,14.7,0,3.72.34,3.94,3.91,3.3a9.78,9.78,0,0,1,4.1-.19h0c5.83-1.49,11.64-3.07,17.49-4.45,2-.48,2.12-1.69,2.1-3.33,0-7,0-14.07,0-21.1,0-1.42-.11-2.73,1.72-3.24,9.29-2.61,18.56-5.28,27.84-7.93h0c1.37,1.45,1,3.28,1.06,5,.18,6.27-.32,12.56.28,18.82h0c2.09,1.84,4-.31,6-.25,1.07-.32,1.58.22,3.2.05,5.34-1.46,10.64-3.09,16-4.29,2.69-.6,3.68-1.59,3.58-4.47-.24-7.17-.07-14.36-.08-21.55,0-1.41-.11-2.61,1.82-3.11C185.88,142.23,195.36,139.62,204.85,137.06Z"/>
    <path class="a"
          d="M564.6,174.3c7.81,6.93,14.89,13.14,21.89,19.44,6,5.4,6,5.45-.38,10.23-1.28,1-2.52,2-4.62,3.61,9,0,17,0,24.94,0,5.51,0,4.81-.73,4.87,4.78,0,2.89-.15,5.8.05,8.69.16,2.37-.7,3-3,3-9.2-.12-18.42-.05-27.63-.05q-62.82,0-125.66.07c-3.16,0-4.64-.5-4.19-4a37.85,37.85,0,0,0,0-8.31c-.31-3.19.52-4.25,4-4.21,20.57.19,41.13,0,61.7.17,3.19,0,4.32-.56,4.2-4-.3-8.43-.3-16.89,0-25.33.13-3.53-1.07-4.09-4.25-4.05-13.24.18-26.49,0-39.74.14-2.64,0-3.55-.65-3.35-3.34a63.42,63.42,0,0,0,0-9.45c-.2-2.64.62-3.38,3.3-3.35,13.37.14,26.75,0,40.12.15,3.2.05,4-.81,3.89-3.94-.26-6.29-.19-12.61,0-18.9.07-2.51-.71-3.15-3.17-3.14-15.39.11-30.78,0-46.17.13-3,0-3.86-.73-3.79-3.75.18-7.89,0-7.89-7.71-7.89-7.35,0-7.35,0-7.35-7.26,0-9.95.16-19.92-.09-29.87-.09-3.56.72-4.67,4.48-4.63,21.2.2,42.4.1,63.59.09,4.27,0,4.27,0,2.6-4-1.9-4.53-3.68-9.1-5.76-13.55-.94-2-.32-2.59,1.55-3,4.19-.83,8.41-1.62,12.55-2.7,2.07-.55,2.91.19,3.71,1.92,2.73,5.94,5.79,11.73,8.27,17.76,1.17,2.85,2.66,3.59,5.59,3.57,18.68-.14,37.35,0,56-.14,3.08,0,4.08.7,4,3.91-.2,11.47-.15,22.94,0,34.41,0,2.55-.56,3.82-3.3,3.42a15.64,15.64,0,0,0-2.27,0c-3,0-6.86-1-8.85.47-2.18,1.6-.73,5.66-.69,8.62s-1.74,2.48-3.48,2.48c-15.52,0-31,.11-46.55-.09-3.42-.05-4.24.93-4.1,4.19.26,6.16.22,12.35,0,18.52-.1,2.76.87,3.29,3.42,3.27,14.26-.11,28.51,0,42.77-.11,2.62,0,3.56.62,3.36,3.32a76.77,76.77,0,0,0,0,9.83c.14,2.35-.69,3-3,3C579.5,174.22,572.59,174.3,564.6,174.3Z"/>
    <path class="a"
          d="M206.42,68.23c4.46.31,7.33,2,8,7,.55,4.2,1,9.39,3.6,12s7.88,2.74,12,3.89q75.12,21.06,150.21,42.15c2.56.73,4.62.74,6.51-1.21.17-.18.43-.27.6-.45,7-7.08,15.24-9.18,24.92-5.27.25.73-.85,1.27-1.4,2-7.91,10.44-15.9,20.83-23.75,31.32-1.48,2-2.69,2.59-5.29,1.84q-86-24.94-172.09-49.7a13.12,13.12,0,0,0-5.55-.52c1.41-4.5,1-9.13,1-13.73,0-8,0-16,0-24C205.23,71.74,205.07,69.81,206.42,68.23Z"/>
    <path class="b"
          d="M206.42,68.23c0,12.89,0,25.77,0,38.65,0,2-.2,3.66-2.28,4.49-15.71,4.6-31.4,9.26-47.12,13.81Q94,143.38,31,161.51c-1.54.44-2.92,1.33-4.34-.55C18,149.41,9.16,137.94,0,125.91l13.83-1.69a2.67,2.67,0,0,1,2.11.6,19.51,19.51,0,0,1,1.83,1.33c7.14,7.49,14.83,7.56,24.69,4.67,49.68-14.53,99.61-28.18,149.48-42.07,2.43-.68,3.91-1.62,4.34-4.3.49-3.1,1.84-6.09,2.15-9.19C198.92,70.2,202,68.54,206.42,68.23Z"/>
    <path class="a"
          d="M206.4.34c6.92-.36,6.93-.36,8.19,6.39,1.59,8.54,3.24,17.07,4.69,25.64a3.88,3.88,0,0,0,3.15,3.57q69.87,20.91,139.7,42a4,4,0,0,0,4.2-.69c.19-.17.43-.27.62-.44,7.5-6.71,15.73-10.23,25.92-5.26.13.76-1.18,1.21-1.91,1.93C382.05,82.2,373,90.83,364.23,99.67c-2.15,2.16-4,2.57-6.9,1.74q-73.95-20.86-148-41.51c-1.21-.34-2.46-.55-3.68-.81a7.17,7.17,0,0,1-.51-3.69c0-16.44,0-32.88,0-49.33C205.22,4.11,204.86,2,206.4.34Z"/>
    <path class="b"
          d="M206.4.34q0,27.18,0,54.36c0,1.5.16,3-.72,4.39Q169.33,69.35,133,79.62c-25.69,7.22-51.42,14.31-77.07,21.69-3.43,1-5.51.37-7.81-2.14-8.93-9.74-18-19.35-26.62-28.56,2.81-.4,7.22-1,11.61-1.67,1.75-.26,3,.8,4,1.81,7.32,7.59,15.13,7,24.81,4C104.2,61.43,146.79,49,189.3,36.32c2.81-.84,4-2.09,4.46-5.05,1.37-8.71,3.4-17.31,4.68-26,.58-4,1.92-5.9,6.08-5A14.6,14.6,0,0,0,206.4.34Z"/>
    <path class="a"
          d="M687,174.46c5.33-1.91,10.31-3.58,15.19-5.49,2.22-.87,3-.55,3.36,1.92A83,83,0,0,0,708,181.54c.54,1.91,0,2.66-1.76,3.36q-25.05,10-50,20.19c-1.68.68-2.59.81-3.21-1.32q-2-6.87-4.49-13.59c-.77-2.07.15-2.54,1.77-3.06,5.74-1.84,11.43-3.83,17.19-5.64,2.08-.65,3-1.61,2.94-4q-.17-27.78,0-55.56c0-2.68-.8-3.49-3.42-3.37-4.4.19-8.83,0-13.24.08-1.93,0-2.71-.56-2.65-2.58.13-3.65.17-7.31,0-11-.12-2.43.58-3.37,3.15-3.25,4,.2,8.09-.2,12.1.13,3.5.29,4.14-1,4.08-4.25-.18-11.59,0-23.19-.15-34.77,0-3.07.9-3.91,3.82-3.69a71.52,71.52,0,0,0,9.82,0c2.56-.16,3.17.78,3.15,3.22-.12,12,0,23.93-.12,35.9,0,2.79.64,3.77,3.54,3.58,4-.26,8.06,0,12.1-.09,1.91,0,2.71.54,2.63,2.57-.14,3.65-.18,7.32,0,11,.13,2.46-.61,3.35-3.14,3.25-4.15-.18-8.32,0-12.48-.06-1.51,0-2.64,0-2.63,2.12C687,138.48,687,156.22,687,174.46Z"/>
    <path class="a"
          d="M762.43,168c13.11,0,26.22.06,39.32-.06,2.62,0,3.71.34,3.68,3.4q-.24,27.19,0,54.4c0,2.66-.75,3.51-3.38,3.35a87,87,0,0,0-10.59,0c-2.74.18-3.69-.89-3.27-3.44.45-2.79-.91-3.26-3.41-3.25q-23.25.17-46.51,0c-2.63,0-3.76.69-3.31,3.35s-.68,3.52-3.32,3.34a72.68,72.68,0,0,0-9.45,0c-2.56.16-3.45-.56-3.43-3.3q.18-27.39,0-54.78c0-2.6.88-3.08,3.23-3.06C735.45,168.06,748.94,168,762.43,168Z"/>
    <path class="a"
          d="M506.13,348.6c.23,1,1,.95,1.51,1.19,9.61,4.29,14.79,12.07,14.3,21.45-.61,11.64-6.82,20-17.2,23.19a50.13,50.13,0,0,1-14.53,2.1c-11.1.07-22.19,0-33.29.08-2.46,0-3.15-.64-3.14-3.12q.14-41.76,0-83.52c0-1.74-.14-3.18,2.43-3.12,12.85.3,25.72-.57,38.55.49,10.39.86,18.17,5.68,21.64,16a20.39,20.39,0,0,1-7.4,23.17C508.06,347.25,507.06,347.94,506.13,348.6Z"/>
    <path class="a"
          d="M791.48,142.71c0,3.82-.1,7.09,0,10.36.08,2-.42,2.89-2.69,2.88q-27.81-.12-55.62,0c-2,0-2.66-.67-2.6-2.61.1-3.47,0-6.94,0-11-7.43,4.51-14.31,8.64-21.46,12.29-2.22,1.13-3.3,1-4.79-1.1a54.83,54.83,0,0,0-10-10.71,219.69,219.69,0,0,0,21-10.86c14.78-8.84,28.57-18.92,39.78-32.16,1.14-1.36,2.1-1.82,3.8-1.11,3.6,1.5,7.22,3,10.91,4.2,2.11.7,2.44,1.55.86,3-2.22,2-1.52,3.2.68,4.83a241.14,241.14,0,0,0,48.32,27.83c2.82,1.22,3.54,1.94.95,4.3a62.85,62.85,0,0,0-7.59,8.38c-1.38,1.82-2.48,2.06-4.36,1C803.16,149.09,797.55,146.05,791.48,142.71Z"/>
    <path class="a"
          d="M794.63,376.7v-4.57c0-20.54.07-41.08-.08-61.62,0-3.07.91-3.74,3.79-3.68,7.76.15,7.77,0,7.77,7.62,0,26.21-.05,52.41.06,78.62,0,2.78-.71,3.25-3.47,3.64-6.82,1-10.5-2-14.12-7.55-12.93-20-26.46-39.54-39.77-59.27-.46-.68-.95-1.35-2-2.85-.1,2.25-.22,3.55-.22,4.85,0,20.29-.08,40.58.08,60.86,0,3.23-.92,4-4,3.88-7.72-.21-7.73-.06-7.73-7.61,0-26.08.06-52.16-.07-78.25,0-3.14.94-3.67,4-4,6.34-.76,9.88,1.72,13.31,7,12.81,19.75,26.19,39.12,39.36,58.63C792.31,373.57,793.19,374.71,794.63,376.7Z"/>
    <path class="a"
          d="M761.09,74.69c4.54,0,9.09-.21,13.62.07,3.18.2,3.83-1.09,3.66-3.9-.21-3.39,0-6.81-.08-10.2-.07-1.95.57-2.71,2.59-2.65,3.78.12,7.57.13,11.35,0,2-.06,2.62.67,2.56,2.63-.13,3.65.12,7.32-.09,11-.16,2.61.87,3.18,3.26,3.13,6.31-.13,12.62.07,18.92-.1,2.52-.06,3.35.73,3.19,3.22a74.18,74.18,0,0,0,0,9.07c.14,2.34-.7,3-3,3-6.43-.13-12.87,0-19.3-.08-2.25,0-3.15.57-3,3,.18,4,0,8.07.08,12.1.05,1.89-.46,2.72-2.53,2.64-3.77-.14-7.57-.14-11.35,0-2,.06-2.65-.66-2.61-2.6.1-4.16,0-8.32.06-12.48,0-2-.63-2.63-2.61-2.61-9.84.07-19.68.09-29.52,0-2.28,0-2.75.91-2.69,2.91.11,3.91-.06,7.82.06,11.72.07,2.19-.44,3.23-2.91,3.08a101.29,101.29,0,0,0-10.6,0c-2.2.1-2.82-.73-2.75-2.83.14-4-.06-8.07.08-12.09.08-2.14-.63-2.82-2.77-2.78-6.43.11-12.87,0-19.3.08-2.34,0-3.46-.44-3.25-3.1a71,71,0,0,0,0-9.45c-.12-2.24.79-2.75,2.85-2.72,6.43.1,12.87-.07,19.3.09,2.47.06,3.31-.66,3.17-3.16-.19-3.64.05-7.31-.08-11-.08-2,.67-2.65,2.61-2.6,3.65.1,7.32.15,11,0,2.32-.11,2.73,1,2.67,2.94-.11,3.66.07,7.32-.07,11-.08,2.13.67,2.86,2.81,2.8C751.25,74.6,756.17,74.68,761.09,74.69Z"/>
    <path class="a"
          d="M642.94,350.52a53.26,53.26,0,0,1,3.52-20c6.7-16.91,23.5-26.72,42.35-25.07,15,1.31,25.42,8.57,31,22.67,1,2.5,1.13,3.91-2.15,4.28-2.72.31-5.65,2.17-8,1.53s-2.36-4.37-3.65-6.63c-4.84-8.49-12.42-11.82-21.79-11.56-10.72.29-19.69,4.36-24.29,14.42-6.57,14.37-6.36,29.17.24,43.49,4.51,9.79,15.24,14.8,27.23,13.78,10.28-.88,18.53-7.57,21.6-18.29,1.07-3.75,2.57-4.58,5.87-3.11a3.54,3.54,0,0,0,.73.18c7.39,1.8,7.39,1.8,4.6,8.71-6.74,16.68-22.13,25.2-41.21,22.82q-29.25-3.66-35-34.51A97.62,97.62,0,0,1,642.94,350.52Z"/>
    <path class="a"
          d="M570.42,357.07c0,12-.07,23.94.06,35.91,0,2.67-.42,3.71-3.43,3.66-8.74-.15-8.74,0-8.74-8.84,0-22.18-.06-44.36.06-66.53,0-2.84-.7-3.65-3.55-3.57-7.69.2-15.39,0-23.08.12-2.29,0-3-.6-3-2.94-.08-8-.18-8,7.78-8,19.93,0,39.85.07,59.78-.07,3,0,3.81.88,3.74,3.82-.18,7.13,0,7.13-7.13,7.13-6.18,0-12.37.17-18.54-.07-3-.12-4.07.56-4,3.84C570.55,333.38,570.42,345.23,570.42,357.07Z"/>
    <path class="a"
          d="M95.18,194.48a41.77,41.77,0,0,1-7.41,2.1c-2,.4-1.69-1.61-1.7-2.79-.06-7.26,0-14.51,0-21.77a1.18,1.18,0,0,1,.37-.05c8.72,1.39,8.72,1.39,8.73,10.07C95.13,186.18,95.16,190.33,95.18,194.48Z"/>
    <path class="c"
          d="M326.77,172v1.4a150.22,150.22,0,0,1,0,23.43c-3.25-.47-6.1-1.56-9.16-2.29,0-5.67.22-11.34,0-17-.11-2.84.79-4.2,3.63-4.47C323.11,172.93,324.83,171.88,326.77,172Z"/>
    <path class="c"
          d="M264.47,179.43a52.17,52.17,0,0,1-5.09-1.47c0-6.15.18-12.3-.09-18.43-.12-2.79.94-3.84,3.42-4.13,1.94-.22,3.73-1.42,5.79-1-1.47,3.12-.63,6.42-.73,9.63-.13,4.63,0,9.27,0,13.9C267.88,179.87,268,180.33,264.47,179.43Z"/>
    <path class="d"
          d="M151.9,178.71a27.68,27.68,0,0,0,3-.64c-2.07-.1-1.42-1.68-1.43-2.78-.05-5.51,0-11,0-16.53,0-1.21.31-2.55-1.54-2.86-2.53-.44-4.91-1.7-7.58-1.48,0,7.3,0,14.6,0,21.9,0,.43-.16,3.62.74,3.92a4.26,4.26,0,0,0,1.36-.18,9,9,0,0,0,1.3-.25"/>
    <path class="e"
          d="M626.57,390.09c0,6.47,0,6.47-6.41,6.47s-6.35,0-6.35-6.22c0-6.52,0-6.52,6.47-6.53C626.57,383.81,626.57,383.81,626.57,390.09Z"/>
    <path class="f"
          d="M326.77,196.86q0-11.72,0-23.43c1.23,1.1.69,2.56.74,3.87.25,6.31-.43,12.65.35,19,0,.28-.28.62-.5.87C327.33,197.18,327,197,326.77,196.86Z"/>
    <path class="g"
          d="M530.43,116.06c-18.92,0-37.83-.06-56.74.07-2.92,0-4-.67-3.78-3.72a96.52,96.52,0,0,0,0-12.84c-.21-3.16,1-3.71,3.87-3.7,20.42.11,40.85.06,61.27.06,17.27,0,34.55.07,51.82-.07,3,0,3.94.81,3.77,3.79a83.58,83.58,0,0,0,0,12.46c.33,3.6-1.15,4-4.26,4C567.74,116,549.08,116.06,530.43,116.06Z"/>
    <path class="g"
          d="M577.46,207.58c-12.3,0-23.74,0-35.18,0-1.79,0-2.4-.56-2.39-2.37q.09-14.15,0-28.29c0-1.87.47-2.72,2.53-2.68,6.64.1,13.28,0,21.13,0l-12,8.52C560.25,190.74,568.85,198.51,577.46,207.58Z"/>
    <path class="g"
          d="M761.32,207.58c-7.81,0-15.62-.07-23.42,0-2.28,0-3.07-.56-3-2.94.16-6.54.12-13.08,0-19.62,0-1.94.48-2.62,2.52-2.61q24.17.1,48.35,0c1.75,0,2.44.46,2.41,2.32-.09,6.79-.11,13.58,0,20.38,0,2.13-.89,2.46-2.71,2.44C777.43,207.54,769.38,207.58,761.32,207.58Z"/>
    <path class="g"
          d="M466,370.71c0-4.28.09-8.56,0-12.84-.06-2,.69-2.58,2.62-2.53,8.55.2,17.12-.35,25.67.37,11.36,1,17.64,9.7,14.35,19.81-1.94,6-6.36,8.89-12.27,9.7-9.4,1.28-18.86.36-28.29.64-1.79.05-2.07-.84-2.05-2.32C466,379.26,466,375,466,370.71Z"/>
    <path class="g"
          d="M480.63,344.48c-4.62,0-8.41-.1-12.19,0-2,.08-2.55-.66-2.53-2.6.1-7.18,0-14.36,0-21.54,0-1.17-.43-2.68,1.66-2.62,9.18.31,18.42-.81,27.55.76,6.64,1.15,10.2,5.56,10.35,12.36s-3.31,11.2-9.91,12.77C490.39,344.9,485.07,344.32,480.63,344.48Z"/>
    <path class="h"
          d="M789.38,141.09h-57a202.67,202.67,0,0,0,22-17.65c4.73-4.49,4.79-4.44,9.8-.45C772,129.27,780.29,135,789.38,141.09Z"/>
</svg>